<?xml version="1.0" encoding="UTF-8"?>
<svg class="bg" id="Layer_2" data-name="Layer 2" xmlns="http://www.w3.org/2000/svg" viewBox="0 0 201.46 120.91">
  <defs>
    <style>
      .bg {
        background: #fff;
      }
      .cls-1 {
        fill: #222e31;
         <!-- fill: #fff; -->
      }

      .cls-1, .cls-2, .cls-3 {
        stroke-width: 0px;
      }

      .cls-2 {
        fill: #e4a754;
      }

      .cls-3 {
        fill: #d8af8b;
      }
    </style>
  </defs>
  <g id="Layer_1-2" data-name="Layer 1">
    <g>
      <path class="cls-1" d="M201.46,3.24c-.63.36-1.1.64-1.57.89-1.73.91-3.57,1.66-5.19,2.74-3.72,2.49-5.65,5.87-5.63,10.57.1,25.46.05,31.67.04,57.13,0,16.02-8.68,26.38-24.46,29.2-.23.04-2.61.57-5.47.4-3.05-.4-5.74-1.29-8.36-2.48-11.38-5.16-16.7-14.32-16.73-26.63-.04-19.65-.03-22.1-.03-33.54-.22-27.97-31.02-36.85-31.02-36.85,13.69.18,31.03,5.11,31.03,5.11,12.38,4.49,22.72,13.61,24.14,27.11.21,2.04.33,4.1.33,6.15.02,23.49.01,17.3.02,40.79,0,.89-.3,2.01.12,2.63.71,1.06,1.87,2.46,2.87,2.49,1.02.04,2.32-1.25,3.05-2.28.48-.67.2-1.9.2-2.88,0-27.34,0-35.43,0-62.76,0-10.43,8.72-19.96,19.15-20.92,5.83-.53,11.71.48,17.5,3.11Z"/>
      <path class="cls-1" d="M103.2,10.53v18.54c.03.76,0,1.51,0,2.27,0,12.49-.01,24.99,0,37.48,0,3.6-.1,7.21.21,10.78.97,11,9.83,19.74,20.88,20.4,5.64.33,11.33.06,17.64.06-1.07-.82-1.66-1.32-2.3-1.76-6.46-4.51-10.05-10.18-9.68-18.59.55-12.38.3-24.79.21-37.19-.12-15.81-11.71-29.06-26.96-31.98Z"/>
      <path class="cls-2" d="M98.82,68.82c0,3.6.1,7.21-.21,10.78-.97,11-9.83,19.74-20.88,20.4-5.64.33-11.33.05-17.64.05,1.07-.82,1.67-1.32,2.3-1.76,6.46-4.51,10.05-10.18,9.68-18.59-.1-2.23-.17-4.46-.22-6.7,13.81-2.92,24.57-13.41,26.98-26.46,0,7.43,0,14.86-.01,22.29Z"/>
      <path class="cls-1" d="M98.84,10.53v18.54c-.03.76,0,1.51,0,2.27v7.43c-2.41,13.09-13.23,23.59-27.08,26.48-.05-7.58.07-15.16.13-22.74.12-15.81,11.71-29.06,26.96-31.98Z"/>
      <polygon class="cls-2" points="164.4 107.17 157.61 114.04 164.48 120.91 171.16 114.23 164.4 107.17"/>
      <g>
        <polygon class="cls-2" points="46.45 107.17 39.65 114.04 46.52 120.91 53.21 114.23 46.45 107.17"/>
        <polygon class="cls-2" points="32.84 107.17 26.05 114.04 32.92 120.91 39.6 114.23 32.84 107.17"/>
      </g>
      <path class="cls-1" d="M67.38,40.02c0,12.78.02,14.56-.02,35.06-.03,12.3-5.35,21.46-16.73,26.63-2.62,1.19-5.31,2.08-8.36,2.48-2.86.17-5.24-.36-5.47-.4-15.77-2.82-24.45-13.18-24.45-29.2,0-25.46-.06-31.67.05-57.13.02-4.7-1.91-8.07-5.63-10.57-1.62-1.08-3.45-1.83-5.19-2.75-.48-.25-.94-.53-1.57-.89C5.79.62,11.67-.4,17.5.14c10.42.95,19.15,10.49,19.15,20.92,0,27.34,0,35.43,0,62.76,0,.98-.28,2.21.2,2.88.73,1.02,2.03,2.31,3.05,2.28,1.01-.03,2.16-1.44,2.87-2.49.42-.62.12-1.74.12-2.63,0-23.49,0-17.3.02-40.79,0-2.05.12-4.11.33-6.15,1.42-13.5,11.42-23.33,24.14-27.11h0c.98-.27,17.7-4.92,30.98-5.09,0,0-29.67,8.55-30.98,35.31Z"/>
      <g>
        <path class="cls-3" d="M113.3,117.15h.24v-1.08h.94c.41,0,.74-.1.97-.29s.35-.47.35-.81-.12-.62-.35-.82c-.24-.2-.56-.29-.97-.29h-1.18v3.29ZM114.48,114.08c.35,0,.62.08.8.23.19.16.28.38.28.66s-.09.51-.28.66c-.19.15-.45.23-.8.23h-.94v-1.78h.94Z"/>
        <path class="cls-3" d="M118.97,117.15h2.27v-.22h-2.03v-1.35h1.76v-.21h-1.76v-1.3h1.96v-.22h-2.2v3.29Z"/>
        <path class="cls-3" d="M124.47,117.15h.24v-1.08h.94c.1,0,.2,0,.32-.02l.79,1.1h.27l-.82-1.15c.25-.07.44-.2.57-.37.13-.18.2-.4.2-.66,0-.35-.12-.62-.35-.82-.24-.2-.56-.29-.97-.29h-1.18v3.29ZM125.65,114.08c.35,0,.62.08.8.23.19.16.28.38.28.66s-.09.51-.28.66c-.19.16-.45.23-.8.23h-.94v-1.79h.94Z"/>
        <path class="cls-3" d="M130.21,117.15h.24v-1.45h1.76v-.22h-1.76v-1.41h1.96v-.22h-2.2v3.29Z"/>
        <path class="cls-3" d="M135.74,115.75v-1.89h-.24v1.9c0,.47.11.82.35,1.06.23.24.55.36.97.36s.74-.12.97-.36c.23-.24.35-.59.35-1.06v-1.9h-.24v1.89c0,.41-.09.71-.28.91-.19.2-.45.3-.8.3s-.62-.1-.8-.3c-.19-.2-.28-.5-.28-.91Z"/>
        <path class="cls-3" d="M141.62,113.86v3.29h.24v-2.81l1.38,2.37h.12l1.38-2.38v2.82h.24v-3.29h-.2l-1.47,2.55-1.47-2.55h-.2Z"/>
        <path class="cls-3" d="M148.47,117.15h2.27v-.22h-2.03v-1.35h1.76v-.21h-1.76v-1.3h1.96v-.22h-2.2v3.29Z"/>
      </g>
      <g>
        <path class="cls-1" d="M62.29,116.56h-2.59l-.49,1.19h-1.32l2.48-5.57h1.27l2.49,5.57h-1.35l-.49-1.19ZM61.89,115.58l-.88-2.13-.88,2.13h1.77Z"/>
        <path class="cls-1" d="M64.72,112.18h1.29v4.52h2.79v1.05h-4.08v-5.57Z"/>
        <path class="cls-1" d="M69.12,114.43h2.25v1h-2.25v-1Z"/>
        <path class="cls-1" d="M77.36,115.36c.18.24.27.53.27.87,0,.49-.19.86-.57,1.13-.38.26-.93.39-1.66.39h-2.88v-5.57h2.72c.68,0,1.2.13,1.56.39.36.26.55.61.55,1.06,0,.27-.06.51-.19.72-.13.21-.31.38-.55.5.32.1.57.27.75.51ZM73.81,113.15v1.31h1.28c.32,0,.56-.06.72-.17.16-.11.25-.28.25-.49s-.08-.38-.25-.49c-.16-.11-.41-.16-.72-.16h-1.28ZM76.08,116.62c.17-.11.26-.28.26-.52,0-.46-.34-.69-1.03-.69h-1.5v1.38h1.5c.34,0,.6-.06.77-.17Z"/>
        <path class="cls-1" d="M82.28,116.56h-2.59l-.49,1.19h-1.32l2.48-5.57h1.27l2.49,5.57h-1.35l-.49-1.19ZM81.88,115.58l-.88-2.13-.88,2.13h1.77Z"/>
        <path class="cls-1" d="M84.71,112.18h2.53c.61,0,1.14.12,1.6.35.46.23.83.56,1.08.98.26.42.39.91.39,1.47s-.13,1.05-.39,1.46c-.26.42-.62.74-1.08.98-.46.23-1,.35-1.6.35h-2.53v-5.57ZM87.18,116.7c.56,0,1-.16,1.33-.47.33-.31.5-.73.5-1.26s-.17-.95-.5-1.26-.78-.47-1.33-.47h-1.18v3.46h1.18Z"/>
        <path class="cls-1" d="M94.88,116.56h-2.59l-.49,1.19h-1.32l2.48-5.57h1.27l2.49,5.57h-1.35l-.49-1.19ZM94.47,115.58l-.88-2.13-.88,2.13h1.77Z"/>
        <path class="cls-1" d="M105.43,112.18l-1.82,5.57h-1.38l-1.23-3.77-1.27,3.77h-1.38l-1.83-5.57h1.34l1.26,3.92,1.31-3.92h1.19l1.27,3.95,1.3-3.95h1.23Z"/>
        <path class="cls-1" d="M106.15,112.18h1.29v5.57h-1.29v-5.57Z"/>
      </g>
    </g>
  </g>
</svg>